<?xml version="1.0" encoding="utf-8"?>
<!-- Generator: Adobe Illustrator 19.0.0, SVG Export Plug-In . SVG Version: 6.00 Build 0)  -->
<svg version="1.1" id="Layer_1" xmlns="http://www.w3.org/2000/svg" xmlns:xlink="http://www.w3.org/1999/xlink" x="0px" y="0px"
	 viewBox="0 0 80 80" style="enable-background:new 0 0 80 80;" xml:space="preserve">
<style type="text/css">
	.st0{clip-path:url(#XMLID_14_);fill:#9B9B9B;}
	.st1{clip-path:url(#XMLID_15_);fill:#9B9B9B;}
</style>
<g id="XMLID_3_">
	<g id="XMLID_10_">
		<defs>
			<path id="XMLID_11_" d="M19.5,62.2c-0.2,0.1-0.2,0.3-0.3,0.4c0,0.2,0,0.4,0.1,0.6c0.1,0.3,0.3,0.6,0.5,0.8
				c0.2,0.3,0.5,0.3,0.8,0.2c2.2-1.3,4.5-2.3,7.1-2.6c3.4-0.3,6.1,0.6,9.2,1.7c0.9,0.4,3,1.3,3.9,0.9c0.2-0.1,0.3-0.2,0.4-0.3
				c1.5-1.6,3.3-2.6,5.3-2.7c2.7-0.2,5.4,0.9,7.9,2c0.1,0.1,0.2,0.1,0.3,0.2c0.2,0.1,0.5,0.1,0.6-0.1l3.6-3.5
				c0.2-0.2,0.3-0.5,0.2-0.8c-0.1-0.3-0.3-0.5-0.6-0.5c-5.8-0.4-16-0.7-23.5,1.2c-0.4,0.1-0.7-0.2-0.8-0.6c-0.1-0.4,0.2-0.8,0.5-0.9
				c9-2.4,21.6-1.5,26.5-1.1c0.2,0,0.3-0.1,0.5-0.2l1.7-1.7c0.2-0.2,0.3-0.5,0.2-0.8c-0.1-0.3-0.3-0.5-0.5-0.5
				c-2-0.3-6.5-0.6-16.1-0.8c-1,0-2,0-2.9,0.1C32.4,54.1,21.9,60.6,19.5,62.2"/>
		</defs>
		<use xlink:href="#XMLID_11_"  style="overflow:visible;fill:#9B9B9B;"/>
		<clipPath id="XMLID_14_">
			<use xlink:href="#XMLID_11_"  style="overflow:visible;"/>
		</clipPath>
		
			<rect id="XMLID_12_" x="18.4" y="50.6" transform="matrix(-0.9981 -6.087762e-02 6.087762e-02 -0.9981 79.2916 120.3724)" class="st0" width="46.2" height="16.8"/>
	</g>
	<g id="XMLID_4_">
		<defs>
			<path id="XMLID_5_" d="M32.4,27.5L33.8,50L23,54.2L32.4,27.5z M34.6,19.3c9,6.9,16.8,21.1,19.7,27.1c-5.5-0.4-12,0.4-17.9,2.6
				C35.8,39.1,35.2,29.2,34.6,19.3 M31.9,15.8c-0.2,0.3-0.2,0.6-0.2,0.9l0.2,3.9L19.5,56.1c-0.1,0.3-0.1,0.7,0,1
				c0.2,0.8,1,1.2,1.7,0.9l8.6-3.3c0-0.1,0-0.1,0.1-0.2c0,0.1,0,0.1,0.1,0.1c0.1,0.3,0.4,0.4,0.7,0.3c5.1-2.2,10.3-2.9,15.5-3.2
				c0.2,0,0.4-0.1,0.5-0.4c0.1-0.2,0.1-0.5,0-0.7c-0.2-0.4-0.4-0.7-0.6-1l0.1,0c3.6-0.6,7.2-0.6,10.3,0.2c0.7,0.2,1.4-0.3,1.6-1.1
				c0.1-0.4,0-0.8-0.1-1.1c0-0.1-11-24.4-24.3-32.5C33.5,15.1,33.2,15,33,15C32.6,15.1,32.1,15.3,31.9,15.8"/>
		</defs>
		<use xlink:href="#XMLID_5_"  style="overflow:visible;fill:#9B9B9B;"/>
		<clipPath id="XMLID_15_">
			<use xlink:href="#XMLID_5_"  style="overflow:visible;"/>
		</clipPath>
		<polygon id="XMLID_9_" class="st1" points="16.8,11 61.2,13.8 58.3,60.7 13.9,58 		"/>
	</g>
</g>
</svg>
