<?xml version="1.0" encoding="utf-8"?>
<!-- Generator: Adobe Illustrator 19.0.0, SVG Export Plug-In . SVG Version: 6.00 Build 0)  -->
<svg version="1.1" id="Layer_1" xmlns="http://www.w3.org/2000/svg" xmlns:xlink="http://www.w3.org/1999/xlink" x="0px" y="0px"
	 viewBox="0 0 80 80" style="enable-background:new 0 0 80 80;" xml:space="preserve">
<style type="text/css">
	.st0{fill:#FF8300;}
	.st1{fill-rule:evenodd;clip-rule:evenodd;fill:#FFFFFF;}
</style>
<path id="XMLID_19_" class="st0" d="M79.5,75.8c0,2.3-1.9,4.2-4.2,4.2H4.8c-2.3,0-4.2-1.9-4.2-4.2V5.3c0-2.3,1.9-4.2,4.2-4.2h70.4
	c2.3,0,4.2,1.9,4.2,4.2V75.8z"/>
<path id="XMLID_16_" class="st1" d="M56,43c-2.8,0.1-5,2.4-5,5.2c0.1,2.8,2.4,5,5.2,5c2.8-0.1,5-2.4,4.9-5.2
	C61.2,45.2,58.8,43,56,43 M56.2,51.6c-1.9,0-3.5-1.5-3.6-3.4c0-1.9,1.5-3.5,3.4-3.5c1.9-0.1,3.5,1.4,3.5,3.4
	C59.6,50,58.1,51.5,56.2,51.6"/>
<path id="XMLID_13_" class="st1" d="M20.1,43.4c-2.8,0.1-5,2.4-4.9,5.1c0.1,2.8,2.3,4.9,5.1,4.9c2.8-0.1,4.9-2.4,4.8-5.1
	C25.2,45.5,22.9,43.3,20.1,43.4 M20.4,51.8c-1.9,0-3.5-1.5-3.5-3.3c0-1.9,1.5-3.4,3.4-3.5c1.8-0.1,3.4,1.4,3.5,3.3
	C23.7,50.2,22.2,51.7,20.4,51.8"/>
<path id="XMLID_12_" class="st1" d="M20.2,47c-0.7,0-1.3,0.6-1.3,1.4c0,0.8,0.6,1.3,1.3,1.3c0.7,0,1.3-0.6,1.3-1.4
	C21.6,47.6,21,47,20.2,47"/>
<path id="XMLID_5_" class="st1" d="M63.8,40.5c-2.2-3.7-8.4-4.2-12.6-6.9c-9.7-6.3-18.7-7.7-31-3.8C19,30.1,19,31.6,19,31.6
	c-3.1,3.6-3.9,9.2-3.9,9.2c-1.2,1.1-1.7,3.8-1.3,5.6c0,0.2,0.2,0.3,0.4,0.3c0.2,0,0.3-0.1,0.4-0.3c0.8-2.4,3-4.1,5.6-4.1
	c3.3-0.1,6.1,2.6,6.1,5.9c0,0.2,0,0.4,0,0.6c0,0.3,0.1,0.5,0.3,0.7c0.2,0.2,0.4,0.3,0.7,0.3l21.9-0.3c0.3,0,0.5-0.1,0.7-0.3
	c0.2-0.2,0.3-0.4,0.3-0.7c0-0.1,0-0.2,0-0.2c-0.1-3.3,2.6-6.1,5.9-6.2c3.3-0.1,6.1,2.6,6.1,5.9c0,0,0,0.1,0,0.1c0,0.6,0.5,1,1,0.9
	c0.9-0.1,1.9-0.3,2.5-0.7C67.4,47.1,65.6,41.2,63.8,40.5 M28.2,46.8c-0.2,0-0.4-0.1-0.4-0.4c-0.3-4.2-3.7-6.8-7.8-6.4v0
	c-0.2,0-0.5-0.1-0.5-0.4c0-0.2,0.2-0.4,0.3-0.5c0,0,0.1,0,0.1,0c4.5-0.5,8.3,2.4,8.6,7.1C28.6,46.6,28.5,46.8,28.2,46.8 M31.7,36
	c-0.2,0.2-0.5,0.3-0.8,0.2c-1.8-0.3-3.6-0.7-5.5-1.1c-1.4-0.7-2.9-2.1-3.1-3.7c2.7-1.1,5.7-1.6,8.7-1.7c0.3,0,0.5,0.1,0.7,0.3
	c0.2,0.2,0.3,0.4,0.3,0.7l0,4.7C32.1,35.6,31.9,35.9,31.7,36 M35.7,41.1c-2.5-0.3-2.3-2.7,0.1-2.4C38.3,39,38.2,41.4,35.7,41.1
	 M50.9,38c-5.9-0.3-10.9-0.5-16-1.2c-0.5-0.1-0.8-0.5-0.8-0.9l0-5.1c0-0.3,0.1-0.5,0.3-0.7c0.2-0.2,0.5-0.3,0.7-0.2
	c6.9,0.6,13.4,3.4,16.8,7.1C51.8,37,52.3,38.2,50.9,38 M62.2,41.7c-3-0.6-6.7-3.9-6.7-3.9c0-0.1,0-0.2,0-0.3
	C57.1,37.3,63.1,39.1,62.2,41.7"/>
<path id="XMLID_4_" class="st1" d="M56.1,46.7c-0.7,0-1.4,0.7-1.3,1.4c0,0.8,0.6,1.4,1.4,1.3c0.7,0,1.4-0.6,1.4-1.4
	C57.5,47.4,56.8,46.7,56.1,46.7"/>
</svg>
