<?xml version="1.0" encoding="utf-8"?>
<!-- Generator: Adobe Illustrator 19.0.0, SVG Export Plug-In . SVG Version: 6.00 Build 0)  -->
<svg version="1.1" id="Layer_1" xmlns="http://www.w3.org/2000/svg" xmlns:xlink="http://www.w3.org/1999/xlink" x="0px" y="0px"
	 viewBox="0 0 80 80" style="enable-background:new 0 0 80 80;" xml:space="preserve">
<style type="text/css">
	.st0{fill-rule:evenodd;clip-rule:evenodd;fill:#9C9B9B;}
</style>
<path id="XMLID_10_" class="st0" d="M41.6,45.2l-1.1-2.7c0.6-0.2,1-0.8,1-1.4c0-0.8-0.7-1.5-1.5-1.5c-0.8,0-1.5,0.7-1.5,1.5
	c0,0.7,0.5,1.3,1.1,1.5l-1.2,2.6H41.6z"/>
<path id="XMLID_9_" class="st0" d="M26.6,28.3h3.8v-2.5h-3.8c-0.7,0-1.2,0.6-1.2,1.2C25.3,27.7,25.9,28.3,26.6,28.3"/>
<path id="XMLID_8_" class="st0" d="M62.1,30.8l-3.6,9c-0.6,1.5-1.1,2.3-1.8,2.7c-0.8,0.5-1.6,0.6-3,0.6h-11v2.8c0,0.6-0.4,1-1,1
	h-3.5c-0.6,0-1-0.5-1-1v-2.8h-11c-1.4,0-2.2-0.1-3-0.6c-0.7-0.5-1.2-1.3-1.8-2.7l-3.6-9c-0.3,0.5-0.5,1-0.5,1.7v21.5
	c0,1.7,1.4,3,3,3h39.1c1.7,0,3-1.4,3-3V32.4C62.6,31.8,62.4,31.3,62.1,30.8"/>
<path id="XMLID_4_" class="st0" d="M24,41.3c0.4,0.3,1.1,0.3,2.2,0.3h11v-3.3h5.6v3.3h11c1.1,0,1.8,0,2.2-0.3
	c0.4-0.3,0.8-0.9,1.2-2.1l3.7-9.5c-0.4-0.2-0.9-0.4-1.4-0.4h-11v-4.2c0-1-0.4-1.8-1-2.4c-0.6-0.6-1.5-1-2.4-1H34.9
	c-0.9,0-1.8,0.4-2.4,1c-0.6,0.6-1,1.5-1,2.4v4.2h-11c-0.5,0-1,0.1-1.4,0.4l3.7,9.5C23.2,40.4,23.6,41,24,41.3 M43.3,37.2h-6.6v-1
	c0-2.9,6.6-2.9,6.6,0V37.2z M34.3,25.2c0-0.2,0.1-0.3,0.2-0.4c0.1-0.1,0.2-0.2,0.4-0.2h10.1c0.2,0,0.3,0.1,0.4,0.2
	c0.1,0.1,0.2,0.3,0.2,0.4v4.2H34.3V25.2z"/>
<path id="XMLID_3_" class="st0" d="M54.8,27c0-0.7-0.6-1.2-1.2-1.2h-3.8v2.5h3.8C54.2,28.3,54.8,27.7,54.8,27"/>
</svg>
