<?xml version="1.0" encoding="utf-8"?>
<!-- Generator: Adobe Illustrator 19.0.0, SVG Export Plug-In . SVG Version: 6.00 Build 0)  -->
<svg version="1.1" id="Layer_1" xmlns="http://www.w3.org/2000/svg" xmlns:xlink="http://www.w3.org/1999/xlink" x="0px" y="0px"
	 viewBox="0 0 80 80" style="enable-background:new 0 0 80 80;" xml:space="preserve">
<style type="text/css">
	.st0{fill:#77BC1F;}
	.st1{fill-rule:evenodd;clip-rule:evenodd;fill:#FFFFFF;}
</style>
<path id="XMLID_24_" class="st0" d="M79.5,75.2c0,2.3-1.9,4.2-4.2,4.2H4.8c-2.3,0-4.2-1.9-4.2-4.2V4.8c0-2.3,1.9-4.2,4.2-4.2h70.4
	c2.3,0,4.2,1.9,4.2,4.2V75.2z"/>
<path id="XMLID_23_" class="st1" d="M46.1,59.2c-0.2-0.1-0.4-0.1-0.6,0c-1.4,1-3.4,1.5-5.5,1.5c-2,0-4.1-0.5-5.5-1.5
	c-0.2-0.1-0.4-0.1-0.6,0c-0.2,0.1-0.3,0.3-0.3,0.5c0,0.8,0,1.6-0.2,2.4c-0.1,0.3,0.1,0.6,0.4,0.7c2,0.6,4.1,0.8,6.2,0.8
	c2.1,0,4.2-0.3,6.2-0.8c0.3-0.1,0.5-0.4,0.4-0.7c-0.2-0.8-0.2-1.6-0.2-2.4C46.4,59.5,46.3,59.4,46.1,59.2"/>
<path id="XMLID_22_" class="st1" d="M40,30.6c-1.2,0-2.2,1-2.2,2.2c0,1.2,1,2.2,2.2,2.2c1.2,0,2.2-1,2.2-2.2
	C42.3,31.6,41.3,30.6,40,30.6"/>
<path id="XMLID_16_" class="st1" d="M57.9,51.3c-7.8-4.9-11.7,10.2-8,12.6c1.5,1,4.5-0.2,6.9-2.2C60.2,58.8,62.4,54.2,57.9,51.3
	 M56.6,52.4c0.6,0,1.1,0.5,1.1,1.1c0,0.6-0.5,1.1-1.1,1.1c-0.6,0-1.1-0.5-1.1-1.1C55.5,52.9,55.9,52.4,56.6,52.4 M53.9,51.6
	c0.6,0,1.1,0.5,1.1,1.1c0,0.6-0.5,1.1-1.1,1.1c-0.6,0-1.1-0.5-1.1-1.1C52.8,52.1,53.3,51.6,53.9,51.6 M51.5,61.7
	c-1.9-1.2,0.1-8.9,4-6.4C59.5,57.9,53.4,62.9,51.5,61.7 M58.3,56.7c-0.6,0-1.1-0.5-1.1-1.1c0-0.6,0.5-1.1,1.1-1.1
	c0.6,0,1.1,0.5,1.1,1.1C59.4,56.2,58.9,56.7,58.3,56.7"/>
<path id="XMLID_9_" class="st1" d="M52.8,48.6c0.1-0.1,0.3-0.1,0.4-0.1c0.2,0,0.3-0.2,0.4-0.3c0.1-0.2,0.1-0.3,0-0.5
	c-0.1-0.2-0.2-0.3-0.2-0.5c-0.1-0.2-0.1-0.4,0-0.6c0.1-0.2,0.3-0.3,0.6-0.2c5.3,0.6,6.3-2.9,5.2-5.2c-1-2.1-3.5-3.3-6.3-0.3
	c-0.5,0.6-1,1.2-1.4,1.8c-0.1,0.2-0.3,0.3-0.5,0.3c-0.2,0-0.4-0.1-0.5-0.2c-0.6-0.6-1.1-1.2-1.7-1.8c-0.2-0.2-0.3-0.5-0.3-0.8
	c0.1-0.3,0.2-0.5,0.5-0.6c3-1.6,4.9-4.3,4.9-8.5c0-1.6-0.3-3.1-0.7-4.5c-0.1-0.2,0-0.5,0.2-0.6c1.2-1,2-2.6,2-4.4
	c0-3.1-2.5-5.7-5.7-5.7c-1.7,0-3.3,0.8-4.3,2c-0.2,0.2-0.4,0.2-0.6,0.2c-1.5-0.5-3.1-0.8-4.7-0.8c-1.7,0-3.2,0.3-4.7,0.8
	c-0.2,0.1-0.5,0-0.6-0.2c-1-1.2-2.6-2-4.3-2c-3.1,0-5.7,2.5-5.7,5.7c0,1.8,0.8,3.3,2,4.4c0.2,0.2,0.2,0.4,0.2,0.6
	c-0.5,1.4-0.7,2.9-0.7,4.5c0,4.2,1.9,7,4.9,8.6c0.3,0.1,0.4,0.4,0.5,0.7c0,0.3,0,0.6-0.3,0.8c-0.6,0.6-1.2,1.2-1.7,1.8
	c-0.1,0.2-0.3,0.2-0.5,0.2c-0.2,0-0.3-0.1-0.5-0.3c-0.4-0.6-0.8-1.2-1.3-1.8c-2.8-3.1-5.4-1.8-6.3,0.2c-1.1,2.4-0.1,5.8,5.2,5.3
	c0.2,0,0.4,0.1,0.6,0.2c0.1,0.2,0.1,0.4,0,0.6c-0.1,0.2-0.2,0.3-0.2,0.5c-0.1,0.2-0.1,0.3,0,0.5c0.1,0.2,0.2,0.3,0.4,0.3
	c0.1,0,0.3,0.1,0.4,0.1c1.6,0.6,2.9,1.8,3.9,3.3c0.1,0.2,0.4,0.3,0.6,0.3c0.2,0,0.4-0.2,0.5-0.4c0.9-3.4,3.9-6.5,7.8-6.4
	c3.9,0,6.8,3.1,7.8,6.5c0.1,0.2,0.2,0.4,0.5,0.4c0.2,0,0.5-0.1,0.6-0.3C49.8,50.4,51.1,49.2,52.8,48.6 M28.4,23.3
	c-0.1,0.2-0.3,0.3-0.5,0.2c-0.2,0-0.4-0.1-0.5-0.3c-0.3-0.5-0.5-1.2-0.5-1.9c0-1.9,1.6-3.5,3.5-3.5c0.7,0,1.3,0.2,1.8,0.5
	c0.2,0.1,0.3,0.3,0.3,0.5c0,0.2-0.1,0.4-0.2,0.5C30.7,20.5,29.4,21.8,28.4,23.3 M32.2,28.8c0-0.8,0.7-1.5,1.5-1.5
	c0.8,0,1.5,0.7,1.5,1.5c0,0.8-0.7,1.5-1.5,1.5C32.8,30.3,32.2,29.6,32.2,28.8 M40,39.8c-8.3,0-6.4-10.1,0-10.1
	C46.4,29.7,48.4,39.8,40,39.8 M46.4,30.3c-0.8,0-1.5-0.7-1.5-1.5c0-0.8,0.7-1.5,1.5-1.5c0.8,0,1.5,0.7,1.5,1.5
	C47.9,29.6,47.2,30.3,46.4,30.3 M47.8,19.5c-0.2-0.1-0.2-0.3-0.2-0.5c0-0.2,0.1-0.4,0.3-0.5c0.5-0.3,1.1-0.5,1.8-0.5
	c1.9,0,3.5,1.5,3.5,3.5c0,0.7-0.2,1.3-0.5,1.9c-0.1,0.2-0.3,0.3-0.5,0.3c-0.2,0-0.4-0.1-0.5-0.3C50.6,21.8,49.3,20.5,47.8,19.5"/>
<path id="XMLID_3_" class="st1" d="M22.1,51.3c-4.6,2.9-2.4,7.5,1,10.4c2.4,2,5.4,3.2,6.9,2.2C33.8,61.5,30,46.3,22.1,51.3
	 M26.1,51.6c0.6,0,1.1,0.5,1.1,1.1c0,0.6-0.5,1.1-1.1,1.1c-0.6,0-1.1-0.5-1.1-1.1C25,52.1,25.5,51.6,26.1,51.6 M23.4,52.4
	c0.6,0,1.1,0.5,1.1,1.1c0,0.6-0.5,1.1-1.1,1.1c-0.6,0-1.1-0.5-1.1-1.1C22.3,52.9,22.8,52.4,23.4,52.4 M21.7,56.6
	c-0.6,0-1.1-0.5-1.1-1.1c0-0.6,0.5-1.1,1.1-1.1c0.6,0,1.1,0.5,1.1,1.1C22.8,56.1,22.3,56.6,21.7,56.6 M28.5,61.7
	c-1.9,1.2-8-3.9-4-6.4C28.4,52.8,30.4,60.5,28.5,61.7"/>
</svg>
