<?xml version="1.0" encoding="utf-8"?>
<!-- Generator: Adobe Illustrator 19.0.0, SVG Export Plug-In . SVG Version: 6.00 Build 0)  -->
<svg version="1.1" id="Layer_1" xmlns="http://www.w3.org/2000/svg" xmlns:xlink="http://www.w3.org/1999/xlink" x="0px" y="0px"
	 viewBox="0 0 80 80" style="enable-background:new 0 0 80 80;" xml:space="preserve">
<style type="text/css">
	.st0{fill:#9B9B9B;}
</style>
<path id="XMLID_6_" class="st0" d="M64.6,29.8c-2.9-2.2-9.9-9.7-9.9-9.7l-7.2,8.7c-3.2-0.3-7.4-0.3-10.2,1.3
	c-2.2-1.4-4.8-2.2-6.9-2.6l-6.5-6c0,0-5.6,7.5-8.4,10C11.5,34.8,9,36.2,9,36.2l8.1,7.7c0.4,1.5,0.8,2.4,0.8,2.5
	c0.2,0.5,0.4,1,0.7,1.5c-0.5,1.1-0.4,2.4,0.4,3.5c0.5,0.7,1.2,1.1,2,1.3c-0.1,0.9,0.1,1.8,0.7,2.5c0.6,0.8,1.5,1.3,2.4,1.4
	c0,0.6,0.2,1.3,0.6,1.8c0.5,0.7,1.4,1.2,2.3,1.3c0,0.6,0.2,1.1,0.6,1.6c0.5,0.7,1.2,1.2,2.1,1.2c0.8-0.1,1.8-0.7,2-0.8
	c2.8,2.5,4,3.8,5.8,4.2c1.3,0.3,2.3,0.5,3.2,0.1c1.1-0.5,1.8-1.3,2.2-1.9c1.4,0,2.3-0.5,2.9-1c1-0.8,1.5-1.8,1.8-2.6
	c1.1-0.1,1.9-0.5,2.4-0.9c1-0.8,1.4-1.9,1.7-2.7c1.6-0.4,2.4-1.2,2.8-1.9c1.2-2,0.8-3.6,0.6-3.9c0-0.1-0.1-0.2-0.2-0.3L54.1,50
	c2-1.5,5.2-4.3,6.2-7.7L72,34.7C72,34.7,66.3,31.1,64.6,29.8z M16.2,36.9c-0.1,0.9-0.9,1.5-1.7,1.4c-0.9-0.1-1.5-0.9-1.4-1.7
	c0.1-0.9,0.9-1.5,1.7-1.4C15.7,35.2,16.3,36,16.2,36.9z M21.1,51.5c-0.5-0.1-1-0.3-1.3-0.7c-0.5-0.7-0.5-1.6,0-2.2
	c0.2-0.1,0.3-0.3,0.4-0.4l2.8-2.1c0.4-0.3,0.8-0.4,1.3-0.4c0.5,0.1,1,0.3,1.3,0.7c0.5,0.6,0.5,1.4,0.1,2.1c-0.3,0.1-0.5,0.3-0.8,0.5
	l-2.8,2.1c-0.2,0.1-0.3,0.3-0.5,0.4C21.5,51.5,21.3,51.5,21.1,51.5z M24.5,55.2c-0.2,0.1-0.5,0.1-0.8,0.1c-0.5-0.1-1-0.3-1.3-0.8
	c-0.3-0.4-0.4-0.9-0.3-1.4c0-0.2,0.1-0.5,0.2-0.7c0.3-0.1,0.5-0.3,0.8-0.5l2.9-2.1c0.2-0.1,0.3-0.3,0.5-0.4c0.2,0,0.4-0.1,0.6,0
	c0.5,0.1,1,0.3,1.3,0.8c0.3,0.4,0.4,0.9,0.3,1.4c0,0.2-0.1,0.4-0.2,0.6c-0.2,0.1-0.4,0.2-0.5,0.3l-2.6,1.9
	C25,54.7,24.7,55,24.5,55.2z M27.8,58c-0.3,0.2-0.7,0.3-1.1,0.3c-0.4,0-0.8-0.3-1.1-0.6c-0.3-0.5-0.4-1-0.2-1.5
	c0.1-0.1,0.2-0.1,0.2-0.2l2.9-2.1c0.2-0.2,0.4-0.3,0.6-0.5c0.1,0,0.3,0,0.5,0c0.4,0,0.8,0.3,1.1,0.6c0.2,0.3,0.4,0.7,0.3,1.1
	c-0.1,0.4-0.3,0.8-0.6,1L27.8,58z M32.5,59.1L30,61c-0.3,0.2-0.6,0.2-0.8,0.2c-0.2,0-0.5-0.1-0.8-0.5c-0.4-0.5-0.3-1.2,0.2-1.6
	l2.5-1.9c0.2-0.2,0.5-0.2,0.8-0.2c0.2,0,0.6,0.1,0.8,0.5c0.2,0.2,0.3,0.6,0.2,0.9C33,58.7,32.8,58.9,32.5,59.1z M52.8,54.6
	c-0.3,0.5-1.3,0.8-2.1,0.4c0,0-4.9-5-5.2-4.7c-0.3,0.3,4,5.8,4,5.8c0.4,0.6,0,1.9-0.6,2.3c-0.1,0.1-1.2,0.5-2.1,0c0,0-4.9-5-5.2-4.7
	c-0.3,0.3,3.9,5.7,3.9,5.7c0.6,0.8-0.1,2-0.7,2.6c-0.4,0.3-1.4,0.5-2.7,0c0,0-4.9-5-5.2-4.7c-0.3,0.3,4.1,5.9,4.1,5.9
	c-0.2,0.3-0.6,1-1.2,1.3c-0.8,0.4-2.1,0.4-3-0.4c-0.4-0.3-1.9-1.4-3.9-3l0.1-0.1c0.6-0.5,1-1.1,1.2-1.9c0.1-0.8-0.1-1.5-0.5-2.2
	c-0.4-0.5-0.8-0.8-1.4-1c0,0,0-0.1,0-0.1c0.1-0.9-0.1-1.7-0.6-2.5c-0.5-0.6-1.1-1-1.8-1.2c0.1-0.8-0.2-1.7-0.7-2.4
	c-0.5-0.7-1.2-1.1-2-1.3c0.1-0.8-0.1-1.7-0.7-2.5c-0.6-0.8-1.5-1.3-2.5-1.4c-0.9-0.1-1.7,0.8-2.5,1.3l-2.2,1.6c0-0.1-0.8-2-1.3-4.2
	c0,0,4.3-3.5,5.2-4.5c1.7-1.8,7.9-9.5,7.9-9.5c1.5,0.3,3.1,0.7,4.6,1.5c0,0-4.1,2.9-6.4,5.7c-1.5,1.9-3.3,4.7-2,6.5
	c0.1,0.1,0.1,0.2,0.2,0.2c0,0,0,0,0.1,0.1c0.1,0.1,0.1,0.1,0.2,0.2c0,0,0,0,0.1,0.1c0.1,0.1,0.2,0.1,0.2,0.2c0,0,0,0,0,0
	c0.8,0.5,1.7,0.7,2.9,0.6c0.1,0,0.2,0,0.2,0c0,0,0.1,0,0.1,0c0.1,0,0.2,0,0.2-0.1c0,0,0.1,0,0.1,0c0.1,0,0.2-0.1,0.3-0.1
	c0,0,0.1,0,0.1,0c0.1,0,0.2-0.1,0.4-0.2c0.1,0,0.1-0.1,0.2-0.1l5.8-3.6c0.1-0.1,0.8-0.3,1.7-0.3c0,0,0,0,0.1,0c0,0,0.1,0,0.1,0
	c0.4,0.1,0.8,0.2,1.3,0.5c0,0,0,0,0,0c0.1,0.1,0.2,0.1,0.4,0.2c0,0,0,0,0.1,0c0.1,0.1,0.2,0.2,0.3,0.2c0,0,0.1,0,0.1,0.1
	c0.1,0.1,0.2,0.2,0.4,0.4c0,0,2.3,1.8,3.8,3.4c3.3,3.5,4.6,5.8,4.6,5.8l1.3,1.9C53.4,53.1,53.1,54.1,52.8,54.6z M53.1,48.7l-7.8-9.5
	c0,0-0.1-0.1-0.1-0.1c-0.1-0.2-0.3-0.3-0.4-0.4c0,0-0.1-0.1-0.1-0.1c-0.1-0.1-0.3-0.2-0.4-0.3c-0.1-0.1-0.1-0.1-0.2-0.2
	c-0.1,0-0.1-0.1-0.2-0.1c-1-0.7-1.8-1.1-2.9-1.1c-1.3,0-1.1,0.4-1.5,0.5c-1.3,0.5-1.6,1.5-1.6,1.6c-4.6,4.4-6.4,4.7-6.4,4.7
	c-2,0.3-2.8-1.3-3.1-1.6c-0.6-0.8-0.1-2.8,1-4c0.7-0.8,2.3-2.8,3.2-3.7c0,0,2.1-2.5,3.9-3.2c1-0.4,3-0.7,3.2-0.7
	c1.9-0.4,2-0.4,6.1,0c0.9,0.1,1.7,0.2,2.2,0.3c0,0,4.3,4.9,5.2,5.9c1.1,1.2,5.5,5.1,5.5,5.1C58.4,44.3,55.2,47.2,53.1,48.7z
	 M65.6,37c-0.8-0.1-1.4-0.8-1.3-1.7c0.1-0.8,0.8-1.4,1.7-1.3c0.8,0.1,1.4,0.8,1.3,1.7C67.2,36.5,66.5,37.1,65.6,37z"/>
<line id="XMLID_5_" class="st0" x1="47.5" y1="29.2" x2="36.7" y2="31"/>
</svg>
