<?xml version="1.0" encoding="utf-8"?>
<!-- Generator: Adobe Illustrator 19.0.0, SVG Export Plug-In . SVG Version: 6.00 Build 0)  -->
<svg version="1.1" id="Layer_1" xmlns="http://www.w3.org/2000/svg" xmlns:xlink="http://www.w3.org/1999/xlink" x="0px" y="0px"
	 viewBox="0 0 80 80" style="enable-background:new 0 0 80 80;" xml:space="preserve">
<style type="text/css">
	.st0{fill-rule:evenodd;clip-rule:evenodd;fill:#9C9B9B;}
</style>
<path id="XMLID_5_" class="st0" d="M21.2,36.9v20.4c0,1.2,1.1,2.2,2.4,2.2h32.7c1.3,0,2.4-1,2.4-2.2V36.9L40,25.9L21.2,36.9z
	 M42.3,42.3V57H31.1V42.3c0-1.2,1-2.2,2.2-2.2h6.8C41.3,40.1,42.3,41.1,42.3,42.3"/>
<path id="XMLID_4_" class="st0" d="M32.2,21.6c0-0.6-0.5-1.1-1.1-1.1h-6.2c-0.6,0-1.1,0.5-1.1,1.1v6.6l8.5-5V21.6z"/>
<path id="XMLID_3_" class="st0" d="M62.6,33.9L41.3,21.2c-0.8-0.5-1.8-0.5-2.7,0L17.4,33.9c-1.1,0.7-1.4,1.5-0.7,2.6l0.4,0.7
	L40,23.6l22.8,13.6l0.4-0.7C63.9,35.4,63.7,34.5,62.6,33.9"/>
</svg>
