<?xml version="1.0" encoding="utf-8"?>
<!-- Generator: Adobe Illustrator 19.0.0, SVG Export Plug-In . SVG Version: 6.00 Build 0)  -->
<svg version="1.1" id="Layer_1" xmlns="http://www.w3.org/2000/svg" xmlns:xlink="http://www.w3.org/1999/xlink" x="0px" y="0px"
	 viewBox="0 0 80 80" style="enable-background:new 0 0 80 80;" xml:space="preserve">
<style type="text/css">
	.st0{fill:#8C1D40;}
	.st1{fill-rule:evenodd;clip-rule:evenodd;fill:#FFFFFF;}
</style>
<g id="XMLID_11_">
	<path id="XMLID_10_" class="st0" d="M79.5,75.2c0,2.3-1.9,4.2-4.2,4.2H4.8c-2.3,0-4.2-1.9-4.2-4.2V4.8c0-2.3,1.9-4.2,4.2-4.2h70.4
		c2.3,0,4.2,1.9,4.2,4.2V75.2z"/>
	<g id="XMLID_3_">
		<path id="XMLID_4_" class="st1" d="M35.9,28c-3.6-0.4-7.2,1.5-8.6,5c-1.4,3.3-0.5,6.9,1.9,9.2c0.1,0.1,0.1,0.2,0.1,0.4L23,57.8
			c-0.6,1.4,0.1,3,1.5,3.6l0,0c1.4,0.6,3-0.1,3.6-1.5l6.3-15.1c0.1-0.1,0.2-0.2,0.3-0.2c0.3,0,0.7,0,1,0c0.1,0,0.2-0.1,0.3-0.2
			c0-0.1,0-0.2-0.1-0.3c-1.1-1.1-2-2.4-2.6-3.9c-1.6-4.2-0.3-8.7,2.8-11.5c0.1-0.1,0.1-0.2,0.1-0.3C36.2,28.1,36.1,28,35.9,28
			L35.9,28z M37.3,18.2c-3.5,0.8-6,3.7-6.4,7.1c0,0.3,0.1,0.6,0.3,0.8c0.2,0.2,0.5,0.3,0.8,0.2c0,0,0.1,0,0.1,0
			c0.4-0.1,0.6-0.4,0.6-0.8c0.3-2.6,2.2-4.8,4.9-5.4c3.4-0.8,6.9,1.4,7.6,4.8c0.7,2.9-0.8,5.9-3.4,7.2c-0.1,0-0.1,0.1-0.2,0.1
			c-0.1,0-0.2,0.1-0.3,0.1c-0.5,0.3-0.6,0.9-0.4,1.3c0.2,0.3,0.7,0.5,1,0.4c0.1,0,0.2,0,0.3-0.1c3.5-1.6,5.7-5.3,4.8-9.5
			C46.3,20.3,41.7,17.2,37.3,18.2L37.3,18.2z M40,28.6c-4.3,1.6-6.4,6.4-4.8,10.7c1.3,3.3,4.4,5.3,7.8,5.3c0.1,0,0.2,0.1,0.3,0.2
			l5.9,15.3c0.5,1.4,2.2,2.1,3.6,1.6l0,0c1.4-0.5,2.1-2.2,1.6-3.6l-5.9-15.3c0-0.1,0-0.3,0.1-0.4c2.5-2.2,3.5-5.8,2.2-9.1
			c-0.4-1-1-2-1.7-2.7c-0.1-0.1-0.2-0.1-0.3-0.1c-0.1,0-0.2,0.1-0.2,0.2c-1,2.1-2.7,3.9-4.9,4.9c0,0,0,0,0,0c0,0,0,0,0,0
			c-1.5,0.9-3.4,0.3-4.2-1.1c-0.9-1.5-0.3-3.4,1.1-4.2c0.2-0.1,0.4-0.2,0.7-0.3c0,0,0,0,0.1,0c0.7-0.4,1.2-0.9,1.6-1.5
			c0.1-0.1,0.1-0.2,0-0.3c-0.1-0.1-0.2-0.2-0.3-0.2C41.6,28.2,40.8,28.3,40,28.6L40,28.6z M44.9,44.1c-0.1-0.4,0-0.8,0.4-0.9
			c0.4-0.1,0.8,0,0.9,0.4l0.4,1.1c0.1,0.2,0.2,0.2,0.4,0.2l0.4-0.1c0.4-0.1,0.8,0,0.9,0.4c0.1,0.4,0,0.8-0.4,0.9l-0.4,0.1
			c-0.2,0.1-0.2,0.2-0.2,0.4c0.8,2.2,0.7,1.8,1.5,4c0.1,0.2,0.2,0.2,0.4,0.2l0.4-0.1c0.4-0.1,0.8,0,0.9,0.4c0.1,0.4,0,0.8-0.4,0.9
			l-0.4,0.1c-0.2,0.1-0.2,0.2-0.2,0.4l0.4,1c0.1,0.2,0.2,0.2,0.4,0.2l0.3-0.1c0.4-0.1,0.8,0,0.9,0.4c0.1,0.4,0,0.8-0.4,0.9L51,55.1
			c-0.2,0.1-0.2,0.2-0.2,0.4l0.4,1c0.1,0.2,0.3,0.2,0.4,0.2l0.4-0.1c0.4-0.1,0.8,0,0.9,0.4c0.1,0.4,0,0.8-0.4,0.9l-0.4,0.1
			c-0.2,0.1-0.2,0.3-0.2,0.4l0.4,1.1c0.1,0.4,0,0.8-0.4,0.9c-0.4,0.1-0.8,0-0.9-0.4L44.9,44.1L44.9,44.1z M31,43.2
			c0.1-0.4,0.6-0.5,0.9-0.4c0.4,0.2,0.5,0.6,0.4,0.9c-0.9,2.2-0.8,1.9-1.7,4c-0.1,0.2,0,0.4,0.2,0.4l0.3,0.1
			c0.4,0.2,0.5,0.6,0.4,0.9c-0.1,0.4-0.6,0.5-0.9,0.4l-0.3-0.1c-0.2-0.1-0.4,0-0.4,0.2c-0.9,2.1-0.8,1.8-1.6,3.9
			c-0.1,0.2,0,0.4,0.2,0.4l0.3,0.1c0.4,0.1,0.5,0.6,0.4,0.9c-0.2,0.4-0.6,0.5-0.9,0.4l-0.3-0.1c-0.2-0.1-0.4,0-0.4,0.2l-0.4,1
			c-0.1,0.2,0,0.4,0.2,0.4l0.3,0.1c0.4,0.1,0.5,0.6,0.4,0.9c-0.2,0.4-0.6,0.5-0.9,0.4l-0.3-0.1c-0.2-0.1-0.4,0-0.4,0.2l-0.5,1.1
			c-0.1,0.4-0.6,0.5-0.9,0.4c-0.4-0.2-0.5-0.6-0.4-0.9L31,43.2L31,43.2z"/>
	</g>
</g>
</svg>
