<?xml version="1.0" encoding="utf-8"?>
<!-- Generator: Adobe Illustrator 19.0.0, SVG Export Plug-In . SVG Version: 6.00 Build 0)  -->
<svg version="1.1" id="Layer_1" xmlns="http://www.w3.org/2000/svg" xmlns:xlink="http://www.w3.org/1999/xlink" x="0px" y="0px"
	 viewBox="0 0 80 80" style="enable-background:new 0 0 80 80;" xml:space="preserve">
<style type="text/css">
	.st0{fill-rule:evenodd;clip-rule:evenodd;fill:#9C9B9B;}
</style>
<path id="XMLID_3_" class="st0" d="M48.5,25.9c-0.1,0-0.1,0-0.1,0c-0.1,0-0.1-0.1-0.1-0.1c0.3-13.8-14.8-8.2-18.4-6.7
	c-0.1,0-0.1,0.1-0.1,0.2c0,0.1,0.1,0.1,0.2,0.1c3-0.2,5.6,0.2,7.7,0.8c0.1,0,0.1,0.1,0.1,0.1c0,0.1,0,0.1-0.1,0.1
	c-4.6,1.3-8.8,6.5-10.2,8.3c0,0.1,0,0.1,0,0.2c0,0.1,0.1,0.1,0.2,0c8.4-5.6,14.4-1.4,17.7-1.7c0.1,0,0.1,0.1,0.1,0.1
	c0,0,0,0.1-0.1,0.1c-3.9,2.1-16.2,10-15.4,26.7c0,0.1-0.1,0.2-0.1,0.1c-6.3,0.5-11.5,2.1-11.5,4.8c0,1.7,7.3,3.1,16.4,3.2
	c9.1,0.1,16.5-1.3,16.5-2.9c0-3.2-6.9-4.9-14.4-5.2c-0.1,0-0.1-0.1-0.1-0.1c-0.6-6.6,0-18.2,10.4-25.2c0,0,0.1,0,0.1,0
	c0,0,0.1,0,0.1,0.1c0.8,6.2,4.3,9.3-1.4,18c0,0.1,0,0.1,0,0.2c0,0,0.1,0,0.2,0c3-2.3,14.3-11.7,4.9-18.3c-0.1,0-0.1-0.1,0-0.2
	c0-0.1,0.1-0.1,0.2-0.1c3.3,1.3,8.1,4.4,10.2,12.2c0,0.1,0.1,0.1,0.2,0.1c0.1,0,0.1-0.1,0.1-0.1C61.9,36.7,62.2,20.1,48.5,25.9
	 M33.5,42.5c0.1-0.2,0.3-0.3,0.6-0.3c0.4,0.1,0.9,0.2,1.3,0.4c0.2,0.1,0.3,0.3,0.3,0.6c-0.1,0.5-0.2,1.1-0.3,1.6
	c0,0.3-0.3,0.5-0.6,0.4c-0.5-0.1-1.1-0.1-1.6-0.1c-0.2,0-0.3-0.1-0.4-0.2c-0.1-0.1-0.1-0.3-0.1-0.5C33,43.8,33.2,43.1,33.5,42.5
	 M32.1,47.2c0-0.2,0.2-0.4,0.4-0.4c0.6-0.1,1.4-0.1,2.1,0.1c0.3,0,0.5,0.3,0.4,0.5C35,48,35,48.7,34.9,49.3c0,0.3-0.2,0.5-0.5,0.5
	c-0.8,0-1.5,0.1-2.2,0.3c-0.2,0-0.3,0-0.5-0.1c-0.1-0.1-0.2-0.3-0.2-0.4C31.8,48.7,31.9,48,32.1,47.2 M31.8,51.9
	c0.7-0.2,1.6-0.4,2.6-0.5c0.3,0,0.5,0.2,0.5,0.5c0,0.7,0.1,1.4,0.1,2.1c0.2,2.5-3.4,2.7-3.6,0.1c0-0.6,0-1.2,0-1.8
	C31.5,52.2,31.6,52,31.8,51.9 M43.5,59.2c0.5-0.1,2.1-0.4,3.2-0.8c0.1,0,0.2-0.1,0.2-0.3c0.1-0.2,0.2-0.3,0.3-0.3
	c0.2-0.1,0.3-0.1,0.5,0c0.5,0.2,0.9,0.5,1.3,0.7c0.2,0.1,0.2,0.3,0.2,0.5c0,0.2-0.2,0.3-0.3,0.4c-1.2,0.4-3.1,0.7-3.8,0.8
	c-3.4,0.5-6.9,0.7-10.3,0.6c-3.4,0-7-0.2-10.3-0.8c-0.6-0.1-2.5-0.4-3.7-0.9c-0.2-0.1-0.3-0.2-0.3-0.4c0-0.2,0-0.4,0.2-0.5
	c0.4-0.3,0.9-0.5,1.3-0.7c0.2-0.1,0.3-0.1,0.5,0c0.2,0.1,0.3,0.2,0.3,0.3c0.1,0.1,0.1,0.2,0.2,0.3c1,0.4,2.6,0.8,3.1,0.9
	c2.8,0.5,5.8,0.7,8.7,0.8C37.6,59.9,40.6,59.7,43.5,59.2 M37.8,37.2c-0.5,1.1-1,2.2-1.4,3.4c0,0.1-0.1,0.2-0.3,0.3
	c-0.1,0.1-0.3,0.1-0.4,0c-0.2-0.1-0.5-0.2-0.7-0.2c-0.2,0-0.3-0.2-0.3-0.3c-0.1-0.1,0-0.3,0-0.4c0.6-1.1,1.4-2.2,2.2-3.3
	c0.2-0.2,0.4-0.3,0.7-0.1C37.8,36.7,37.9,37,37.8,37.2"/>
</svg>
