<?xml version="1.0" encoding="utf-8"?>
<!-- Generator: Adobe Illustrator 19.0.0, SVG Export Plug-In . SVG Version: 6.00 Build 0)  -->
<svg version="1.1" id="Layer_1" xmlns="http://www.w3.org/2000/svg" xmlns:xlink="http://www.w3.org/1999/xlink" x="0px" y="0px"
	 viewBox="0 0 80 80" style="enable-background:new 0 0 80 80;" xml:space="preserve">
<style type="text/css">
	.st0{fill-rule:evenodd;clip-rule:evenodd;fill:#9C9B9B;}
</style>
<path id="XMLID_12_" class="st0" d="M48.4,28.3l-0.8-6.1c0-0.2-0.1-0.4-0.2-0.6c-0.2-0.1-0.3-0.2-0.5-0.1c-0.2,0-0.3,0.1-0.3,0.1
	c-0.1,0.1-0.2,0.3-0.3,0.6c-0.2,0.3-0.4,0.6-0.6,0.8c-0.2,0.3-0.5,0.5-1,0.8c-0.3,0.2-0.4,0.3-0.5,0.4c-0.1,0.1-0.1,0.3-0.1,0.4
	c0,0.2,0.1,0.3,0.2,0.4c0.1,0.1,0.3,0.1,0.4,0.1c0.3,0,0.9-0.4,1.7-1.2l0.6,4.8c0,0.3,0.1,0.5,0.3,0.6c0.1,0.2,0.3,0.2,0.5,0.2
	C48.3,29.4,48.5,29,48.4,28.3"/>
<path id="XMLID_3_" class="st0" d="M71.1,41.5c-0.2-0.3-0.7-0.3-0.9,0c-0.3,0.3-0.6,0.4-0.9,0.6c-0.6,0.2-1.1,0.2-1.7,0.1
	c-0.1,0-0.1,0-0.2-0.1c0.7-0.4,1.2-0.9,1.4-1.7c0.1-0.2,0.1-0.4,0.1-0.6c0.1-1.2-0.6-2-1.4-2.4c-0.5-0.2-1-0.3-1.6-0.2
	c-0.5,0.1-1.1,0.3-1.4,0.7c-0.6,0.6-0.8,1.5-0.4,2.7c0.1,0.3,0.3,0.6,0.5,0.9c-0.3,0-0.6,0-0.8,0c-0.5,0-1-0.1-1.4-0.2
	c-0.6-4.9-4.3-9.2-9.5-11.6c0.9-1.2,1.4-2.6,1.4-4.1c0-4-3.4-7.2-7.5-7.2c-4.1,0-7.5,3.2-7.5,7.2c0,0.7,0.1,1.4,0.3,2.1
	c-3.5,0.4-6.7,1.5-9.3,3.2c-3.7-4.2-9.3-0.9-9.3-0.9c3.4,2.7,3.2,5.2,3,8.1c-1.2,3-3.6,5.7-4.7,5.7c-2.6,0.1-7.6,2.3-3.9,6.8
	c3.7,4.4,7,4.4,11.5,3.2c1-0.3,2-0.8,2.9-1.3c1.1-0.6,2-1.3,2.7-2.1c0.2-0.3,0.7-0.3,1-0.1c0.3,0.2,0.3,0.6,0.1,0.9
	c-0.8,0.8-1.8,1.7-3,2.3c-0.4,0.3-0.8,0.5-1.3,0.7c0.6,0.5,1.3,0.9,2.1,1.3L31,55.8c-0.8,1.5-1.8,3-2.8,4.5c0,0.1,0,0.1,0,0.2
	c0,0.1,0.1,0.1,0.2,0.1c0.8-0.1,2.5-0.5,3.6-1.2c0,0,0.6,1.2,1,2.3c0,0,0.1,0.1,0.1,0.1c0.1,0,0.1,0,0.2,0c1.2-1.3,2.7-2.8,3.4-4.4
	c1.9,0.5,3.9,0.7,6,0.7c2.7,0,5.2-0.4,7.5-1.1c-0.2,1.1-0.9,2.4-1.7,3.2c0,0.1-0.1,0.1,0,0.2c0,0.1,0.1,0.1,0.2,0.1
	c1-0.2,2.3-0.9,2.9-1.5c-0.1,0,0.4,1.3,0.5,1.9c0,0.1,0.1,0.1,0.1,0.1c0.1,0,0.1,0,0.2,0c1.9-1.8,3.7-4.8,4.5-7.3
	c3.6-2.8,5.8-6.6,5.8-10.8v-0.1c0.4,0.1,0.8,0.1,1.2,0.1c0.7,0,1.4,0,2-0.1c0.5,0.4,1,0.6,1.6,0.8c0.8,0.2,1.7,0.2,2.5-0.2
	c0.5-0.2,0.9-0.5,1.3-0.8C71.3,42.1,71.3,41.7,71.1,41.5 M18.5,47.7c-0.1,0.8-0.6,1.5-1.2,1.5c0,0,0,0,0,0c-0.6-0.1-0.9-0.9-0.8-1.6
	c0-0.1,0-0.1,0-0.2c0.1-0.8,0.6-1.5,1.2-1.5c0,0,0,0,0,0c0.6,0.1,0.9,0.8,0.8,1.6C18.5,47.5,18.5,47.6,18.5,47.7 M21.5,48.8
	c-0.1,1-0.7,1.8-1.4,1.8c0,0,0,0-0.1,0c-0.7-0.1-1-0.9-1-1.9c0-0.1,0-0.2,0-0.2c0.2-1,0.7-1.8,1.4-1.8c0,0,0.1,0,0.1,0
	c0.7,0.1,1,0.9,1,1.9C21.5,48.7,21.5,48.7,21.5,48.8 M24.8,41.1c-0.5-0.2-0.8-0.8-0.6-1.3c0.2-0.5,0.8-0.8,1.4-0.6
	c0.5,0.2,0.8,0.8,0.6,1.3C25.9,41,25.3,41.3,24.8,41.1 M27.9,42.5c-0.6-0.2-0.9-0.9-0.6-1.5c0.2-0.6,0.9-0.9,1.5-0.7
	c0.6,0.2,0.9,0.9,0.6,1.5C29.2,42.4,28.5,42.7,27.9,42.5 M36.4,38.5c-0.3,0-0.5-0.3-0.5-0.5c0.1-1.4-0.4-2.6-1.2-3.6
	c-0.6-0.7-1.5-1.3-2.5-1.5c0.3,1.2,0.6,3.4-0.4,5.4c-0.1,0.3-0.4,0.4-0.7,0.3c-0.3-0.1-0.4-0.4-0.3-0.7c1.2-2.6,0.1-5.5,0.1-5.5
	c-0.1-0.3,0.1-0.6,0.3-0.7c0.1,0,0.2,0,0.2,0c1.7,0.2,3.1,0.9,4.1,2c1,1.1,1.5,2.6,1.4,4.3C37,38.3,36.7,38.5,36.4,38.5 M52.6,34.6
	c-0.3,0.5-1,0.6-1.4,0.3c-1.4-0.9-3.4-1.5-5.4-1.8c-2.1-0.3-4.3-0.2-6,0.3c-0.6,0.2-1.1-0.2-1.3-0.7c-0.2-0.6,0.2-1.1,0.7-1.3
	c1.6-0.5,3.5-0.7,5.5-0.5c-2.1-0.9-3.5-3-3.5-5.4c0-3.3,2.7-5.9,5.9-5.9c3.3,0,5.9,2.7,5.9,5.9c0,3-2.2,5.5-5.1,5.9
	c1.6,0.4,3.1,1,4.3,1.8C52.8,33.5,52.9,34.1,52.6,34.6 M66.2,41.1c-0.1,0-0.1,0-0.2,0.1l0,0c-0.3-0.3-0.5-0.7-0.7-1.1
	c-0.3-0.7-0.2-1.1,0.1-1.3c0.2-0.2,0.4-0.3,0.7-0.3c0.3,0,0.6,0,0.8,0.1c0.4,0.2,0.7,0.5,0.6,1.1c0,0.1,0,0.3-0.1,0.4
	C67.3,40.5,66.8,40.9,66.2,41.1"/>
</svg>
