<?xml version="1.0" encoding="utf-8"?>
<!-- Generator: Adobe Illustrator 19.0.0, SVG Export Plug-In . SVG Version: 6.00 Build 0)  -->
<svg version="1.1" id="Layer_1" xmlns="http://www.w3.org/2000/svg" xmlns:xlink="http://www.w3.org/1999/xlink" x="0px" y="0px"
	 viewBox="0 0 80 80" style="enable-background:new 0 0 80 80;" xml:space="preserve">
<style type="text/css">
	.st0{fill:#0099A8;}
	.st1{fill:#FFFFFF;}
</style>
<g id="XMLID_9_">
	<g id="XMLID_6_">
		<path id="XMLID_7_" class="st0" d="M5.5,0.5c-2.3,0-4.2,1.9-4.2,4.2v70.4c0,2.3,1.9,4.2,4.2,4.2h69c2.3,0,4.2-1.9,4.2-4.2V4.8
			c0-2.3-1.9-4.2-4.2-4.2H5.5z"/>
	</g>
	<path id="XMLID_3_" class="st1" d="M53.9,24.6c-4.6-3.3-10.4-4.7-12.8-5.2c0-0.8,0-1.6,0-2.3c0,0,0-0.1,0-0.1c0-1.4-2.1-1.4-2.1,0
		c0,0.8,0,1.6,0,2.4c-2.4,0.4-8.2,1.8-12.8,5.2c-6.9,5-8.4,10-8.4,10s3.8-0.3,5.7,0.6c1.7,0.8,3.8,3.6,3.8,3.6s1.9-2.8,6.1-3.3
		c2.5-0.3,4.4,1.3,5.6,2.5c0,3.6,0,7.2,0,10.8c0,3.3,0,6.5,0,9.8c0,0.5-0.2,1.2-0.5,1.9c-0.8,1.5-2.7,1.9-4.2,1.7
		c-2.2-0.4-3.1-2.8-3-4.7c0-1.4-2.1-1.4-2.1,0c-0.1,2.5,1,5.2,3.3,6.4c3.4,1.7,7.7-0.2,8.6-3.9c0.2-0.9,0.2-1.9,0.2-2.9
		c0-2.3,0-4.5,0-6.8c0-4.1,0-8.1,0-12.2c1.1-1.2,3.1-2.8,5.6-2.5c4.2,0.6,6.1,3.3,6.1,3.3s2.1-2.9,3.8-3.6c1.9-0.9,5.7-0.6,5.7-0.6
		S60.7,29.7,53.9,24.6z M30.4,26.5c-1.1,1.5-2.2,3.4-3.1,2.1c-0.5-0.7,0.6-2.6,1.8-3.6c1.7-1.5,3.8-2,3.8-2S31.7,24.7,30.4,26.5z"/>
</g>
</svg>
