<?xml version="1.0" encoding="UTF-8"?>
<svg width="44px" height="47px" viewBox="0 0 44 47" version="1.1" xmlns="http://www.w3.org/2000/svg" xmlns:xlink="http://www.w3.org/1999/xlink">
    <!-- Generator: Sketch 41 (35326) - http://www.bohemiancoding.com/sketch -->
    <title>palm-w</title>
    <desc>Created with Sketch.</desc>
    <defs></defs>
    <g id="Page-1" stroke="none" stroke-width="1" fill="none" fill-rule="evenodd">
        <g id="palm-w" fill="#FFFFFF">
            <g id="Layer_1">
                <path d="M30.5,9.9 L30.4,9.9 C30.3,9.9 30.3,9.8 30.3,9.8 C30.6,-4 15.5,1.6 11.9,3.1 C11.8,3.1 11.8,3.2 11.8,3.3 C11.8,3.4 11.9,3.4 12,3.4 C15,3.2 17.6,3.6 19.7,4.2 C19.8,4.2 19.8,4.3 19.8,4.3 C19.8,4.4 19.8,4.4 19.7,4.4 C15.1,5.7 10.9,10.9 9.5,12.7 L9.5,12.9 C9.5,13 9.6,13 9.7,12.9 C18.1,7.3 24.1,11.5 27.4,11.2 C27.5,11.2 27.5,11.3 27.5,11.3 C27.5,11.3 27.5,11.4 27.4,11.4 C23.5,13.5 11.2,21.4 12,38.1 C12,38.2 11.9,38.3 11.9,38.2 C5.6,38.7 0.4,40.3 0.4,43 C0.4,44.7 7.7,46.1 16.8,46.2 C25.9,46.3 33.3,44.9 33.3,43.3 C33.3,40.1 26.4,38.4 18.9,38.1 C18.8,38.1 18.8,38 18.8,38 C18.2,31.4 18.8,19.8 29.2,12.8 L29.3,12.8 C29.3,12.8 29.4,12.8 29.4,12.9 C30.2,19.1 33.7,22.2 28,30.9 L28,31.1 L28.2,31.1 C31.2,28.8 42.5,19.4 33.1,12.8 C33,12.8 33,12.7 33.1,12.6 C33.1,12.5 33.2,12.5 33.3,12.5 C36.6,13.8 41.4,16.9 43.5,24.7 C43.5,24.8 43.6,24.8 43.7,24.8 C43.8,24.8 43.8,24.7 43.8,24.7 C43.9,20.7 44.2,4.1 30.5,9.9 M15.5,26.5 C15.6,26.3 15.8,26.2 16.1,26.2 C16.5,26.3 17,26.4 17.4,26.6 C17.6,26.7 17.7,26.9 17.7,27.2 C17.6,27.7 17.5,28.3 17.4,28.8 C17.4,29.1 17.1,29.3 16.8,29.2 C16.3,29.1 15.7,29.1 15.2,29.1 C15,29.1 14.9,29 14.8,28.9 C14.7,28.8 14.7,28.6 14.7,28.4 C15,27.8 15.2,27.1 15.5,26.5 M14.1,31.2 C14.1,31 14.3,30.8 14.5,30.8 C15.1,30.7 15.9,30.7 16.6,30.9 C16.9,30.9 17.1,31.2 17,31.4 C17,32 17,32.7 16.9,33.3 C16.9,33.6 16.7,33.8 16.4,33.8 C15.6,33.8 14.9,33.9 14.2,34.1 C14,34.1 13.9,34.1 13.7,34 C13.6,33.9 13.5,33.7 13.5,33.6 C13.8,32.7 13.9,32 14.1,31.2 M13.8,35.9 C14.5,35.7 15.4,35.5 16.4,35.4 C16.7,35.4 16.9,35.6 16.9,35.9 C16.9,36.6 17,37.3 17,38 C17.2,40.5 13.6,40.7 13.4,38.1 L13.4,36.3 C13.5,36.2 13.6,36 13.8,35.9 M25.5,43.2 C26,43.1 27.6,42.8 28.7,42.4 C28.8,42.4 28.9,42.3 28.9,42.1 C29,41.9 29.1,41.8 29.2,41.8 C29.4,41.7 29.5,41.7 29.7,41.8 C30.2,42 30.6,42.3 31,42.5 C31.2,42.6 31.2,42.8 31.2,43 C31.2,43.2 31,43.3 30.9,43.4 C29.7,43.8 27.8,44.1 27.1,44.2 C23.7,44.7 20.2,44.9 16.8,44.8 C13.4,44.8 9.8,44.6 6.5,44 C5.9,43.9 4,43.6 2.8,43.1 C2.6,43 2.5,42.9 2.5,42.7 C2.5,42.5 2.5,42.3 2.7,42.2 C3.1,41.9 3.6,41.7 4,41.5 C4.2,41.4 4.3,41.4 4.5,41.5 C4.7,41.6 4.8,41.7 4.8,41.8 C4.9,41.9 4.9,42 5,42.1 C6,42.5 7.6,42.9 8.1,43 C10.9,43.5 13.9,43.7 16.8,43.8 C19.6,43.9 22.6,43.7 25.5,43.2 M19.8,21.2 C19.3,22.3 18.8,23.4 18.4,24.6 C18.4,24.7 18.3,24.8 18.1,24.9 C18,25 17.8,25 17.7,24.9 C17.5,24.8 17.2,24.7 17,24.7 C16.8,24.7 16.7,24.5 16.7,24.4 C16.6,24.3 16.7,24.1 16.7,24 C17.3,22.9 18.1,21.8 18.9,20.7 C19.1,20.5 19.3,20.4 19.6,20.6 C19.8,20.7 19.9,21 19.8,21.2" id="XMLID_3_"></path>
            </g>
        </g>
    </g>
</svg>