<?xml version="1.0" encoding="UTF-8"?>
<svg width="66px" height="63px" viewBox="0 0 66 63" version="1.1" xmlns="http://www.w3.org/2000/svg" xmlns:xlink="http://www.w3.org/1999/xlink">
    <!-- Generator: Sketch 41 (35326) - http://www.bohemiancoding.com/sketch -->
    <title>pulse-g</title>
    <desc>Created with Sketch.</desc>
    <defs></defs>
    <g id="Page-1" stroke="none" stroke-width="1" fill="none" fill-rule="evenodd">
        <g id="pulse-g" fill="#9C9B9B">
            <g id="Layer_1">
                <g id="XMLID_3_">
                    <path d="M31.8,63 C31.4,63 30.8,62.9 30.2,62.3 C27.9,59.9 27.7,50.2 27.8,30.1 C27.8,21 27.9,9.1 27.1,4.7 C26.2,8.4 25.9,17.7 25.6,24.2 C24.9,42.3 24.4,48.7 21,48.7 C18.1,48.7 17.8,45 17.5,41.7 C17.4,40.8 17.3,39.4 17.1,38.5 C17,39.1 16.9,39.9 16.8,40.5 C16.5,42.9 16.1,46.3 13.4,46.3 L2.3,46.3 C1.5,46.3 0.9,45.6 0.9,44.8 C0.9,44 1.5,43.3 2.3,43.3 L13.3,43.3 C13.6,42.9 13.8,41.1 13.9,40.2 C14.2,37.8 14.5,34.8 17,34.8 C19.7,34.8 20,38.3 20.3,41.5 C20.4,42.6 20.6,44.4 20.9,45.3 C21.2,44.5 21.6,42.7 22,38.7 C22.4,34.6 22.6,29.3 22.8,24.2 C23.5,6.7 24,0.5 27.2,0.5 C27.6,0.5 28.1,0.6 28.7,1.2 C30.6,3.2 30.8,11.6 30.8,30.2 C30.8,37.2 30.8,44.4 31,50.1 C31.3,56.8 31.9,59.1 32.2,59.9 C32.4,59.6 32.7,58.9 33,57.4 C33.3,55.2 33.4,52.1 33.4,49.2 C33.4,46.6 33.4,44.1 33.7,42.2 C33.8,41.1 34.2,37.9 36.7,37.9 C39.2,37.9 39.7,40.6 40,42.2 C40,42.4 40.1,42.5 40.1,42.7 C40.4,41.1 40.5,38.5 40.6,36.6 C40.9,30.5 41.1,25.3 44.4,25.3 C47.8,25.3 48.1,30.8 48.5,37.1 C48.7,40 48.9,44.8 49.7,45.7 C50.3,45.7 50.5,45.4 50.9,43.8 C51.2,42.5 51.8,40.3 54,40.3 C55.8,40.3 56.6,41.3 57.2,42.1 C57.8,42.9 58.2,43.4 59.8,43.4 L64,43.4 C64.8,43.4 65.4,44.1 65.4,44.9 C65.4,45.7 64.8,46.4 64,46.4 L59.8,46.4 C56.9,46.4 55.7,45 55,44.1 C54.5,43.5 54.4,43.4 54,43.4 C53.9,43.6 53.7,44.3 53.6,44.7 C53.2,46.2 52.6,48.9 49.5,48.9 C46.2,48.9 45.9,43.6 45.6,37.5 C45.4,34.8 45.2,29.8 44.4,28.6 C43.7,29.8 43.5,34.4 43.4,36.9 C43.3,39.2 43.2,41.3 42.9,43 C42.7,44 42.3,46.9 40.1,46.9 C37.8,46.9 37.4,44.4 37.1,42.9 C37,42.5 36.9,41.8 36.8,41.4 C36.4,42.9 36.3,46.8 36.3,49.4 C36,56.3 35.9,63 31.8,63 Z" id="XMLID_4_"></path>
                </g>
            </g>
        </g>
    </g>
</svg>