<?xml version="1.0" encoding="utf-8"?>
<!-- Generator: Adobe Illustrator 19.0.0, SVG Export Plug-In . SVG Version: 6.00 Build 0)  -->
<svg version="1.1" id="Layer_1" xmlns="http://www.w3.org/2000/svg" xmlns:xlink="http://www.w3.org/1999/xlink" x="0px" y="0px"
	 viewBox="0 0 400 140" style="enable-background:new 0 0 400 140;" xml:space="preserve">
<style type="text/css">
	.st0{fill:#FEFEFD;}
	.st1{fill:#FDFDFD;}
	.st2{fill:#FDFEFD;}
	.st3{fill:#3D5998;}
	.st4{fill:#3E5996;}
	.st5{fill:#3C5998;}
	.st6{fill:#466099;}
	.st7{fill:none;}
	.st8{fill:#3C5999;}
</style>
<g>
	<path class="st0" d="M220.2,55.5c-4-0.4-8-0.5-11.9,0.6c-2.3,0.6-3,0.1-3-2.2c0.1-3.2,0-6.3,0-9.5c0-9.3,0-9.1-9.2-7.7
		c-3.6,0.6-4.5,2.1-4.4,5.5c0.3,8.6,0.1,17.3,0.1,26c0,9.2,0,18.3,0,27.5c0,1.7-0.5,3.6,2.4,4c7.9,1.2,15.9,1.9,23.9,0.6
		c8.7-1.3,12.5-5.5,13.4-14.2c0.7-6.6,0.8-13.3-0.1-19.9C230.3,59.4,226.9,56.2,220.2,55.5z M217.9,83.5c-0.4,5-7.4,8.6-11.7,6
		c-1.3-0.8-0.9-2-1-3.1c0-4.8,0.2-9.6-0.1-14.4c-0.3-4.8,3.1-4.9,6.1-5.3c3.6-0.4,6.3,0.8,6.6,4.9c0.2,2.1,0,4.3,0,6.5
		C218,79.8,218.1,81.7,217.9,83.5z"/>
	<path class="st1" d="M364.7,55.8c-2.6,0-4.2,0.2-5.8,0c-6.5-1-11,1.1-13.8,7.4c-1.7,4-4.6,7.4-7,11.1c-0.3-0.1-0.6-0.2-0.9-0.3
		c0-9.9,0-19.8,0-29.7c0-8.9,0-8.7-8.8-7.7c-4,0.5-5.1,2-5,6c0.2,16.1,0.1,32.3,0.1,48.4c0,9.7,0,9.6,9.8,9.5c3,0,4.1-0.8,4-3.9
		c-0.2-5.1-0.1-10.3-0.1-15.4c4.3,5.3,7.5,10.7,10.8,16.1c0.9,1.5,1.6,3.3,4,3.2c3.9-0.1,7.9,0,12.7,0c-4.2-7.1-7.9-13.5-11.8-19.8
		c-1.5-2.3-1.4-3.9,0.1-6.2C356.8,68.6,360.4,62.5,364.7,55.8z"/>
	<path class="st1" d="M172.7,55.6c-11.4-1.5-19.5,1.5-22.7,8.4c-0.6,1.3-1,2.8-1.3,4.3c-1,5.6-0.9,11.3-0.3,16.9
		c1,9.5,6.9,14.9,16.5,15.6c5.3,0.4,10.7,0.3,16-0.5c5.1-0.7,6.5-3.3,5-9.8c-1-4.2-4.1-1.3-6.1-1.2c-4.7,0.2-9.3,0.8-13.9,0
		c-2.7-0.4-3.9-2.4-3.9-5.1c0.1-3.2,2.6-1.8,4.1-1.9c2.7-0.2,5.3-0.1,8-0.1c14.3,0,14.8-0.5,12.7-13.3
		C185.6,61.3,180.6,56.6,172.7,55.6z M167.5,73.2c-1.8-1.3-5.7,1.8-5.4-2.9c0.2-3.5,2.4-4.8,5.7-4.7c3.4,0,5.5,1.5,5.4,5
		C173,75.1,169.3,71.8,167.5,73.2z"/>
	<path class="st1" d="M309.4,56.8c-17.2-6.4-29.7,2.1-29.7,20.2c0,0.3,0,0.7,0,1c0.1,0,0.1,0,0.2,0c0,2.7-0.2,5.3,0,8
		c0.8,8.3,5.9,13.4,14.5,14.6c11.9,1.6,20.5-1.7,23.6-9.3c0.5-1.2,0.9-2.5,1.1-3.8c0.9-6.3,0.9-12.6-0.1-18.9
		C318.2,62.7,314.8,58.8,309.4,56.8z M305.9,83.3c0,4-1.9,6.2-6.1,6.3c-4.3,0.1-6.5-2-6.6-6.2c-0.1-1.8,0-3.6,0-5.5c0-1.7,0-3.3,0-5
		c0.1-4.3,2.3-6.4,6.6-6.3c4,0.1,6.1,2.1,6.1,6.2C305.9,76.4,305.9,79.8,305.9,83.3z"/>
	<path class="st1" d="M266.2,57c-17-7.1-30.4,1.5-30.4,19.7c0,0.3,0,0.7,0,1c0,0,0.1,0,0.1,0c0,2.5-0.1,5,0,7.5
		c0.5,8,4.7,13.1,12.4,14.9c5.1,1.2,10.2,1.2,15.3-0.2c6.7-1.7,10.6-6,11.6-12.8c0.9-6.3,1-12.6-0.1-18.9
		C274.2,62.9,271.2,59.1,266.2,57z M262,83.6c0,3.8-2.1,5.8-5.8,6c-3.9,0.2-6.5-1.4-6.8-5.5c-0.2-4-0.2-8,0-11.9
		c0.2-3.9,2.6-5.5,6.3-5.5c3.6,0,6.1,1.6,6.3,5.5c0.1,2,0,4,0,6C262,80,262,81.8,262,83.6z"/>
	<path class="st1" d="M105.2,83.3c-0.1,0-0.1,0-0.2,0c0-5,0.3-10-0.1-15c-0.5-7.2-4.1-10.6-11.2-11.9c-5.9-1.1-11.9-0.5-17.9-0.7
		C74,55.7,73,56.3,73,58.3c0,1.7-0.1,3.4-0.5,4.9c-0.9,3.5,0.6,4.3,3.8,4.1c3.6-0.2,7.3,0,11,0.1c3.6,0.1,4.3,2.6,4.3,5.5
		c0,3.4-2.6,2.3-4.3,2.4c-3,0.2-6,0-9,0.2c-6.9,0.6-10.4,4.5-10.6,11.4c-0.2,9.1,4.6,13.9,13.7,13.8c3.2,0,6.2-0.7,9.2-1.9
		c0.9-0.3,2-1.4,2.7-0.3c2.1,3.6,4.6,1.9,8.1,1.9c3,0,4.2-0.6,4-3.8C105,92.2,105.2,87.7,105.2,83.3z M91.7,87.2
		c-0.3,4.1-3.6,3.7-6.2,4.1c-2.4,0.4-4.3-1-4.2-3.7c0.2-4.2,3.6-2.8,5.6-3.3C89.1,84.6,91.9,83.5,91.7,87.2z"/>
	<path class="st2" d="M63.1,55.8c-1.7,0-4.1,1.3-4.8-2c-1.2-5.6,0.7-8.4,6.3-8.2c3.3,0.1,4.3-0.9,4.2-4.2c-0.3-8.5,0.7-7.1-7.2-7.2
		c-1.2,0-2.3,0-3.5,0c-8.9,0.4-13,4.5-13.3,13.4c-0.1,1.7-0.1,3.3,0,5c0.2,2.4-0.8,3.5-3.2,3.1c-5-0.7-4.7,3-4.7,5.5
		c0,2.5-0.8,6.7,4.6,6.1c2.9-0.3,3.3,1.3,3.2,3.6c-0.1,4.3,0,8.7,0,13c0,2.3,0,4.7,0,7c0,10.1,0,10,10.2,9.7c2.7-0.1,3.4-1,3.4-3.5
		c-0.1-8.3,0.1-16.7-0.1-25c-0.1-3.6,0.6-5.1,4.6-4.9c5.3,0.3,5.5-0.3,5.6-8.7C68.5,53.6,66,55.8,63.1,55.8z"/>
	<path class="st1" d="M136.8,66.8c7.8,1,7.7,1,7.4-6.8c-0.1-2.2-0.6-3.2-2.9-3.7c-5.3-1-10.6-1.4-15.9-0.8
		c-9.1,1.1-14.8,7-15.3,16.2c-0.2,4.3-0.3,8.7,0,13c0.5,8.4,5.8,14.3,14.1,15.7c5.6,0.9,11.3,0.5,16.9-0.5c2.6-0.5,3.1-1.6,3.1-4
		c0.2-7.5,0.3-7.5-7.1-6.6c-0.3,0-0.7,0.1-1,0.1c-11.2,1-12.4-0.1-12.4-11.2C123.6,66.8,125.3,65.4,136.8,66.8z"/>
	<path class="st3" d="M217.9,71.6c-0.3-4.1-3-5.3-6.6-4.9c-3,0.4-6.4,0.5-6.1,5.3c0.3,4.8,0.1,9.6,0.1,14.4c0,1.1-0.3,2.3,1,3.1
		c4.3,2.6,11.3-0.9,11.7-6c0.1-1.8,0-3.6,0-5.5C218,75.9,218.1,73.7,217.9,71.6z"/>
	<path class="st4" d="M167.8,65.5c-3.3,0-5.6,1.2-5.7,4.7c-0.2,4.7,3.5,2.6,5.4,2.9c2.4-0.3,5.5,1.9,5.7-2.7
		C173.3,67,171.2,65.6,167.8,65.5z"/>
	<path class="st5" d="M299.8,66.6c-4.3-0.1-6.5,2-6.6,6.3c0,1.7,0,3.3,0,5c0,1.8-0.1,3.7,0,5.5c0.1,4.3,2.3,6.3,6.6,6.2
		c4.1-0.1,6-2.3,6.1-6.3c0-3.5,0-7,0-10.5C305.9,68.8,303.8,66.8,299.8,66.6z"/>
	<path class="st3" d="M261.9,72.2c-0.2-3.9-2.6-5.5-6.3-5.5c-3.7,0-6.1,1.6-6.3,5.5c-0.2,4-0.2,8,0,11.9c0.2,4.1,2.8,5.7,6.8,5.5
		c3.8-0.2,5.8-2.1,5.8-6c0-1.8,0-3.7,0-5.5C262,76.2,262,74.2,261.9,72.2z"/>
	<path class="st6" d="M86.9,84.4c-2,0.5-5.4-0.9-5.6,3.3c-0.1,2.7,1.8,4,4.2,3.7c2.5-0.4,5.9,0,6.2-4.1
		C91.9,83.5,89.1,84.6,86.9,84.4z"/>
	<path class="st7" d="M220.2,55.5c-4-0.4-8-0.5-11.9,0.6c-2.3,0.6-3,0.1-3-2.2c0.1-3.2,0-6.3,0-9.5c0-9.3,0-9.1-9.2-7.7
		c-3.6,0.6-4.5,2.1-4.4,5.5c0.3,8.6,0.1,17.3,0.1,26c0,9.2,0,18.3,0,27.5c0,1.7-0.5,3.6,2.4,4c7.9,1.2,15.9,1.9,23.9,0.6
		c8.7-1.3,12.5-5.5,13.4-14.2c0.7-6.6,0.8-13.3-0.1-19.9C230.3,59.4,226.9,56.2,220.2,55.5z"/>
	<path class="st7" d="M172.7,55.6c-11.4-1.5-19.5,1.5-22.7,8.4c-0.6,1.3-1,2.8-1.3,4.3c-1,5.6-0.9,11.3-0.3,16.9
		c1,9.5,6.9,14.9,16.5,15.6c5.3,0.4,10.7,0.3,16-0.5c5.1-0.7,6.5-3.3,5-9.8c-1-4.2-4.1-1.3-6.1-1.2c-4.7,0.2-9.3,0.8-13.9,0
		c-2.7-0.4-3.9-2.4-3.9-5.1c0.1-3.2,2.6-1.8,4.1-1.9c2.7-0.2,5.3-0.1,8-0.1c14.3,0,14.8-0.5,12.7-13.3
		C185.6,61.3,180.6,56.6,172.7,55.6z"/>
	<path class="st7" d="M136.8,66.8c7.8,1,7.7,1,7.4-6.8c-0.1-2.2-0.6-3.2-2.9-3.7c-5.3-1-10.6-1.4-15.9-0.8
		c-9.1,1.1-14.8,7-15.3,16.2c-0.2,4.3-0.3,8.7,0,13c0.5,8.4,5.8,14.3,14.1,15.7c5.6,0.9,11.3,0.5,16.9-0.5c2.6-0.5,3.1-1.6,3.1-4
		c0.2-7.5,0.3-7.5-7.1-6.6c-0.3,0-0.7,0.1-1,0.1c-11.2,1-12.4-0.1-12.4-11.2C123.6,66.8,125.3,65.4,136.8,66.8z"/>
	<path class="st7" d="M105.2,83.3c-0.1,0-0.1,0-0.2,0c0-5,0.3-10-0.1-15c-0.5-7.2-4.1-10.6-11.2-11.9c-5.9-1.1-11.9-0.5-17.9-0.7
		C74,55.7,73,56.3,73,58.3c0,1.7-0.1,3.4-0.5,4.9c-0.9,3.5,0.6,4.3,3.8,4.1c3.6-0.2,7.3,0,11,0.1c3.6,0.1,4.3,2.6,4.3,5.5
		c0,3.4-2.6,2.3-4.3,2.4c-3,0.2-6,0-9,0.2c-6.9,0.6-10.4,4.5-10.6,11.4c-0.2,9.1,4.6,13.9,13.7,13.8c3.2,0,6.2-0.7,9.2-1.9
		c0.9-0.3,2-1.4,2.7-0.3c2.1,3.6,5.4,1.3,8.1,1.9c2.9,0.6,4.2-0.6,4-3.8C105,92.2,105.2,87.7,105.2,83.3z"/>
	<path class="st7" d="M63.1,55.8c-1.6-0.6-4.1,1.3-4.8-2c-1.2-5.6,0.7-8.4,6.3-8.2c3.3,0.1,4.3-0.9,4.2-4.2
		c-0.3-8.5,0.7-7.1-7.2-7.2c-1.2,0-2.3,0-3.5,0c-8.9,0.4-13,4.5-13.3,13.4c-0.1,1.7-0.1,3.3,0,5c0.2,2.4-0.8,3.5-3.2,3.1
		c-5-0.7-3.8,3-3.7,5.5c0.1,2.5-1.8,6.7,3.6,6.1c2.9-0.3,3.3,1.3,3.2,3.6c-0.1,4.3,0,8.7,0,13c0,2.3,0,4.7,0,7c0,10.1,0,10,10.2,9.7
		c2.7-0.1,3.4-1,3.4-3.5c-0.1-8.3,0.1-16.7-0.1-25c-0.1-3.6,0.6-5.1,4.6-4.9c5.3,0.3,5.5-0.3,5.6-8.7C68.5,53.6,64.9,56.5,63.1,55.8
		z"/>
	<path class="st7" d="M266.2,57c-17-7.1-30.4,1.5-30.4,19.7c0,0.3,0,0.7,0,1c0,0,0.1,0,0.1,0c0,2.5-0.1,5,0,7.5
		c0.5,8,4.7,13.1,12.4,14.9c5.1,1.2,10.2,1.2,15.3-0.2c6.7-1.7,10.6-6,11.6-12.8c0.9-6.3,1-12.6-0.1-18.9
		C274.2,62.9,271.2,59.1,266.2,57z"/>
	<path class="st7" d="M364.7,55.8c-2.6,0-4.2,0.2-5.8,0c-6.5-1-11,1.1-13.8,7.4c-1.7,4-4.6,7.4-7,11.1c-0.3-0.1-0.6-0.2-0.9-0.3
		c0-9.9,0-19.8,0-29.7c0-8.9,0-8.7-8.8-7.7c-4,0.5-5.1,2-5,6c0.2,16.1,0.1,32.3,0.1,48.4c0,9.7,0,9.6,9.8,9.5c3,0,4.1-0.8,4-3.9
		c-0.2-5.1-0.1-10.3-0.1-15.4c4.3,5.3,7.5,10.7,10.8,16.1c0.9,1.5,1.6,3.3,4,3.2c3.9-0.1,7.9,0,12.7,0c-4.2-7.1-7.9-13.5-11.8-19.8
		c-1.5-2.3-1.4-3.9,0.1-6.2C356.8,68.6,360.4,62.5,364.7,55.8z"/>
	<path class="st7" d="M309.4,56.8c-17.2-6.4-29.7,2.1-29.7,20.2c0,0.3,0,0.7,0,1c0.1,0,0.1,0,0.2,0c0,2.7-0.2,5.3,0,8
		c0.8,8.3,5.9,13.4,14.5,14.6c11.9,1.6,20.5-1.7,23.6-9.3c0.5-1.2,0.9-2.5,1.1-3.8c0.9-6.3,0.9-12.6-0.1-18.9
		C318.2,62.7,314.8,58.8,309.4,56.8z"/>
	<path class="st8" d="M9,3.6v132.8H391V3.6C263.6,3.6,136.3,3.6,9,3.6z M62.8,67.2c-4-0.2-4.7,1.3-4.6,4.9c0.2,8.3,0,16.6,0.1,25
		c0,2.5-0.7,3.4-3.4,3.5c-10.2,0.4-10.2,0.5-10.2-9.6v-7c0-4.3-0.1-8.7,0-13c0.1-2.3-0.3-3.9-3.2-3.6c-5.5,0.6-4.5-3.5-4.6-6
		c-0.1-2.5-0.3-6.2,4.7-5.5c2.4,0.3,3.4-0.7,3.2-3.1c-0.1-1.7,0-3.3,0-5c0.3-8.8,4.4-13,13.3-13.4c1.2-0.1,2.3-0.1,3.5,0
		c7.9,0.1,6.9-1.3,7.2,7.2c0.1,3.3-0.9,4.3-4.2,4.2c-5.6-0.1-7.6,2.7-6.3,8.2c0.7,3.2,3.1,1.9,4.8,1.9c2.9,0,5.7-1.2,5.3,2.7
		C67.6,66.9,68.1,67.5,62.8,67.2z M101.3,100.5c-4.2,0.5-6,1.7-8.1-1.9c-0.6-1-1.8,0-2.7,0.3c-3,1.2-6,1.9-9.2,1.9
		c-9,0.1-13.9-4.8-13.7-13.8c0.2-6.9,3.7-10.8,10.6-11.4c3-0.3,6,0,9-0.2c1.7-0.1,4.4,1.1,4.3-2.4c0-2.9-0.7-5.4-4.3-5.5
		c-3.7-0.1-7.3-0.3-11-0.1c-3.2,0.2-4.7-0.6-3.8-4.2c0.4-1.6,0.5-3.3,0.5-4.9c0-2,1-2.6,2.8-2.5c6,0.2,12-0.4,17.9,0.7
		c7.1,1.2,10.7,4.7,11.2,11.9c0.4,5,0.1,10,0.1,14.9h0.2c0,4.5-0.2,9,0.1,13.5C105.5,99.9,104.3,100.1,101.3,100.5z M136.1,89.4
		c0.3,0,0.7,0,1-0.1c7.4-0.9,7.3-0.9,7.1,6.6c0,2.4-0.6,3.5-3.1,4c-5.6,1-11.3,1.4-16.9,0.5c-8.4-1.4-13.6-7.3-14.1-15.7
		c-0.2-4.3-0.2-8.7,0-13c0.5-9.1,6.2-15.1,15.3-16.2c5.3-0.6,10.6-0.3,15.9,0.8c2.3,0.5,2.8,1.5,2.9,3.7c0.3,7.8,0.4,7.8-7.4,6.8
		c-11.5-1.5-13.1,0-13.1,11.4C123.6,89.3,124.9,90.5,136.1,89.4z M174.2,82.2c-2.7,0-5.3-0.1-8,0.1c-1.5,0.1-4-1.2-4.1,1.9
		c-0.1,2.7,1.2,4.6,3.9,5.1c4.6,0.8,9.3,0.2,13.9-0.1c2-0.1,5.1-3,6.1,1.2c1.5,6.5,0.1,9.1-5,9.8c-5.3,0.8-10.6,0.9-16,0.5
		c-9.6-0.7-15.5-6.1-16.5-15.6c-0.6-5.6-0.7-11.3,0.3-16.9c0.3-1.5,0.7-2.9,1.3-4.3c3.2-6.9,11.4-9.9,22.7-8.4
		c7.9,1,12.9,5.7,14.1,13.3C188.9,81.7,188.4,82.2,174.2,82.2z M231.4,86.1c-0.9,8.7-4.7,12.9-13.4,14.2c-7.9,1.2-15.9,0.6-23.9-0.6
		c-2.8-0.4-2.4-2.3-2.4-4c0-9.2,0-18.3,0-27.5c0-8.7,0.2-17.3-0.1-26c-0.1-3.4,0.8-5,4.4-5.5c9.2-1.4,9.2-1.6,9.2,7.7
		c0,3.2,0.1,6.3,0,9.5c-0.1,2.3,0.7,2.9,3,2.2c3.9-1.1,7.9-0.9,11.9-0.6c6.8,0.7,10.2,3.9,11.1,10.7
		C232.2,72.8,232.1,79.5,231.4,86.1z M275.2,87.1c-1,6.8-4.9,11.1-11.6,12.8c-5.1,1.3-10.3,1.3-15.3,0.2
		c-7.7-1.8-11.8-6.9-12.4-14.9c-0.2-2.5,0-5,0-7.5h-0.1v-1c0-18.1,13.5-26.8,30.4-19.7c5,2.1,8,5.9,8.9,11.2
		C276.1,74.5,276.1,80.8,275.2,87.1z M319.1,87.4c-0.2,1.3-0.6,2.6-1,3.8c-3.1,7.6-11.7,11-23.6,9.3c-8.6-1.2-13.7-6.3-14.5-14.6
		c-0.2-2.6,0-5.3,0-8h-0.2v-1c0-18.2,12.5-26.7,29.7-20.2c5.4,2,8.8,6,9.7,11.7C320,74.7,320,81.1,319.1,87.4z M352.8,80.7
		c4,6.2,7.6,12.7,11.8,19.8c-4.8,0-8.7-0.1-12.7,0c-2.4,0.1-3-1.7-4-3.2c-3.2-5.4-6.5-10.8-10.8-16.1c0,5.1-0.2,10.3,0.1,15.4
		c0.1,3.1-0.9,3.9-4,3.9c-9.8,0-9.8,0.2-9.8-9.5c0-16.1,0.1-32.3-0.1-48.4c-0.1-4,1.1-5.5,5-6c8.8-1.1,8.8-1.3,8.8,7.6v29.7
		c0.3,0.1,0.6,0.2,0.9,0.3c2.4-3.7,5.2-7.1,7-11.1c2.8-6.3,3.9-7.8,13.8-7.4c1.2,0,3.2,0,5.8,0c-4.2,6.8-7.9,12.8-11.8,18.7
		C351.3,76.7,351.3,78.3,352.8,80.7z"/>
</g>
</svg>
